# This file uses centimeters as units for non-parametric coordinates.

g default
v -1.000000 0.000000 1.000000
v 1.000000 0.000000 1.000000
v -1.000000 1.000000 1.000000
v 1.000000 1.000000 1.000000
v -1.000000 1.000000 -1.000000
v 1.000000 1.000000 -1.000000
v -1.000000 0.000000 -1.000000
v 1.000000 0.000000 -1.000000
vt 0.658356 0.971715
vt 0.658356 0.523973
vt 0.882227 0.523973
vt 0.882227 0.971715
vt 0.520963 0.529807
vt 0.968705 0.529807
vt 0.968705 0.977549
vt 0.520963 0.977549
vt 0.668766 0.957129
vt 0.668766 0.509387
vt 0.892637 0.509387
vt 0.892637 0.957129
vt 0.532763 0.517710
vt 0.980505 0.517710
vt 0.980505 0.965452
vt 0.532763 0.965452
vt 0.609060 0.985872
vt 0.609060 0.538130
vt 0.832931 0.538130
vt 0.832931 0.985872
vt 0.746618 0.980038
vt 0.746618 0.532296
vt 0.970489 0.532296
vt 0.970489 0.980038
vn 0.000000 -0.000000 1.000000
vn 0.000000 -0.000000 1.000000
vn 0.000000 -0.000000 1.000000
vn 0.000000 -0.000000 1.000000
vn 0.000000 1.000000 0.000000
vn 0.000000 1.000000 0.000000
vn 0.000000 1.000000 0.000000
vn 0.000000 1.000000 0.000000
vn 0.000000 0.000000 -1.000000
vn 0.000000 0.000000 -1.000000
vn 0.000000 0.000000 -1.000000
vn 0.000000 0.000000 -1.000000
vn 0.000000 -1.000000 0.000000
vn 0.000000 -1.000000 0.000000
vn 0.000000 -1.000000 0.000000
vn 0.000000 -1.000000 0.000000
vn 1.000000 -0.000000 0.000000
vn 1.000000 -0.000000 0.000000
vn 1.000000 -0.000000 0.000000
vn 1.000000 -0.000000 0.000000
vn -1.000000 0.000000 0.000000
vn -1.000000 0.000000 0.000000
vn -1.000000 0.000000 0.000000
vn -1.000000 0.000000 0.000000
s off
g mid2:pCube1
f 1/1/1 2/2/2 4/3/3 3/4/4
f 3/5/5 4/6/6 6/7/7 5/8/8
f 5/9/9 6/10/10 8/11/11 7/12/12
f 7/13/13 8/14/14 2/15/15 1/16/16
f 2/17/17 8/18/18 6/19/19 4/20/20
f 7/21/21 1/22/22 3/23/23 5/24/24
