# This file uses centimeters as units for non-parametric coordinates.

g default
v -1.500000 0.000000 0.500000
v 1.500000 0.000000 0.500000
v -1.500000 1.000000 0.500000
v 1.500000 1.000000 0.500000
v -1.500000 1.000000 -0.500000
v 1.500000 1.000000 -0.500000
v -1.500000 0.000000 -0.500000
v 1.500000 0.000000 -0.500000
vt 0.502473 0.424853
vt 0.565055 0.424853
vt 0.565055 0.487435
vt 0.502473 0.487435
vt 0.438206 0.424853
vt 0.500788 0.424853
vt 0.500788 0.487435
vt 0.438206 0.487435
vt 0.479970 0.397623
vt 0.479970 0.336256
vt 0.500426 0.336256
vt 0.500426 0.397623
vt 0.522313 0.397623
vt 0.522313 0.336256
vt 0.542769 0.336256
vt 0.542769 0.397623
vt 0.458956 0.397623
vt 0.458956 0.336256
vt 0.479411 0.336256
vt 0.479411 0.397623
vt 0.501142 0.397623
vt 0.501142 0.336256
vt 0.521597 0.336256
vt 0.521597 0.397623
vn 0.000000 0.000000 1.000000
vn 0.000000 0.000000 1.000000
vn 0.000000 0.000000 1.000000
vn 0.000000 0.000000 1.000000
vn 0.000000 1.000000 0.000000
vn 0.000000 1.000000 0.000000
vn 0.000000 1.000000 0.000000
vn 0.000000 1.000000 0.000000
vn 0.000000 0.000000 -1.000000
vn 0.000000 0.000000 -1.000000
vn 0.000000 0.000000 -1.000000
vn 0.000000 0.000000 -1.000000
vn 0.000000 -1.000000 0.000000
vn 0.000000 -1.000000 0.000000
vn 0.000000 -1.000000 0.000000
vn 0.000000 -1.000000 0.000000
vn 1.000000 0.000000 0.000000
vn 1.000000 0.000000 0.000000
vn 1.000000 0.000000 0.000000
vn 1.000000 0.000000 0.000000
vn -1.000000 0.000000 0.000000
vn -1.000000 0.000000 0.000000
vn -1.000000 0.000000 0.000000
vn -1.000000 0.000000 0.000000
s off
g mid3_2:pCube1
f 1/17/1 2/18/2 4/19/3 3/20/4
f 3/9/5 4/10/6 6/11/7 5/12/8
f 5/21/9 6/22/10 8/23/11 7/24/12
f 7/13/13 8/14/14 2/15/15 1/16/16
f 2/1/17 8/2/18 6/3/19 4/4/20
f 7/5/21 1/6/22 3/7/23 5/8/24
