# This file uses centimeters as units for non-parametric coordinates.

g default
v -0.562497 0.000000 0.562497
v 0.562497 0.000000 0.562497
v -0.274245 0.500000 0.274245
v 0.274245 0.500000 0.274245
v -0.274245 0.500000 -0.274245
v 0.274245 0.500000 -0.274245
v -0.562497 0.000000 -0.562497
v 0.562497 0.000000 -0.562497
vt 0.188611 0.236755
vt 0.188611 0.076275
vt 0.259936 0.117394
vt 0.259936 0.195636
vt 0.115165 0.236755
vt 0.115165 0.076275
vt 0.186490 0.117394
vt 0.186490 0.195636
vt 0.034802 0.076275
vt 0.113044 0.076275
vt 0.113044 0.154517
vt 0.034802 0.154517
vt 0.026380 0.070851
vt 0.206663 0.070851
vt 0.206663 0.251133
vt 0.026380 0.251133
vt 0.062680 0.244298
vt 0.062680 0.031012
vt 0.157475 0.085661
vt 0.157475 0.189648
vt 0.160396 0.189648
vt 0.160396 0.085661
vt 0.255190 0.031012
vt 0.255190 0.244298
vn 0.000000 0.499450 0.866343
vn 0.000000 0.499450 0.866343
vn 0.000000 0.499450 0.866343
vn 0.000000 0.499450 0.866343
vn 0.000000 1.000000 0.000000
vn 0.000000 1.000000 0.000000
vn 0.000000 1.000000 0.000000
vn 0.000000 1.000000 0.000000
vn 0.000000 0.499450 -0.866343
vn 0.000000 0.499450 -0.866343
vn 0.000000 0.499450 -0.866343
vn 0.000000 0.499450 -0.866343
vn 0.000000 -1.000000 0.000000
vn 0.000000 -1.000000 0.000000
vn 0.000000 -1.000000 0.000000
vn 0.000000 -1.000000 0.000000
vn 0.866343 0.499450 0.000000
vn 0.866343 0.499450 0.000000
vn 0.866343 0.499450 0.000000
vn 0.866343 0.499450 0.000000
vn -0.866343 0.499450 0.000000
vn -0.866343 0.499450 0.000000
vn -0.866343 0.499450 0.000000
vn -0.866343 0.499450 0.000000
s off
g roof6:pCube1
f 1/17/1 2/18/2 4/19/3 3/20/4
f 3/9/5 4/10/6 6/11/7 5/12/8
f 5/21/9 6/22/10 8/23/11 7/24/12
f 7/13/13 8/14/14 2/15/15 1/16/16
f 2/1/17 8/2/18 6/3/19 4/4/20
f 7/5/21 1/6/22 3/7/23 5/8/24
