# This file uses centimeters as units for non-parametric coordinates.

g default
v 0.461940 0.000000 -0.191341
v 0.353554 0.000000 -0.353553
v 0.191342 0.000000 -0.461940
v 0.000000 0.000000 -0.500000
v -0.191341 0.000000 -0.461940
v -0.353553 0.000000 -0.353554
v -0.461940 0.000000 -0.191342
v -0.500000 0.000000 0.000000
v -0.461940 0.000000 0.191342
v -0.353553 0.000000 0.353553
v -0.191342 0.000000 0.461940
v 0.000000 0.000000 0.500000
v 0.191342 0.000000 0.461940
v 0.353553 0.000000 0.353553
v 0.461940 0.000000 0.191342
v 0.500000 0.000000 0.000000
v 0.000000 1.500000 0.000000
vt 0.092357 0.907776
vt 0.101253 0.907776
vt 0.101253 0.977512
vt 0.110148 0.907776
vt 0.084815 0.907776
vt 0.117690 0.907776
vt 0.079776 0.907776
vt 0.122729 0.907776
vt 0.029737 0.907776
vt 0.038633 0.907776
vt 0.038633 0.977512
vt 0.047529 0.907776
vt 0.022196 0.907776
vt 0.055070 0.907776
vt 0.017157 0.907776
vt 0.060109 0.907776
vt 0.113435 0.931492
vt 0.116014 0.944454
vt 0.113435 0.957417
vt 0.106092 0.968405
vt 0.095104 0.975748
vt 0.082141 0.978326
vt 0.069179 0.975748
vt 0.058190 0.968405
vt 0.050848 0.957417
vt 0.048269 0.944454
vt 0.050848 0.931492
vt 0.058190 0.920503
vt 0.069179 0.913161
vt 0.082141 0.910582
vt 0.095104 0.913161
vt 0.106093 0.920503
vt 0.078864 0.977512
vt 0.069969 0.977512
vt 0.069969 0.907776
vt 0.061073 0.977512
vt 0.123668 0.907776
vt 0.132563 0.907776
vt 0.132563 0.977512
vt 0.141459 0.907776
vn 0.907018 -0.190178 -0.375699
vn 0.981750 -0.190178 0.000000
vn 0.907018 -0.190178 0.375699
vn 0.694202 -0.190178 0.694202
vn 0.375699 -0.190178 0.907018
vn 0.000000 -0.190178 0.981750
vn -0.375700 -0.190178 0.907018
vn -0.694202 -0.190178 0.694202
vn -0.907019 -0.190178 0.375699
vn -0.981750 -0.190178 0.000000
vn -0.907018 -0.190178 -0.375700
vn -0.694202 -0.190178 -0.694202
vn -0.375699 -0.190178 -0.907019
vn 0.000001 -0.190178 -0.981750
vn 0.375700 -0.190178 -0.907018
vn 0.694202 -0.190178 -0.694202
vn 0.907018 -0.190178 -0.375699
vn 0.694202 -0.190178 -0.694202
vn 0.000000 1.000000 0.000001
vn 0.694202 -0.190178 -0.694202
vn 0.375700 -0.190178 -0.907018
vn 0.000000 1.000000 0.000001
vn 0.375700 -0.190178 -0.907018
vn 0.000001 -0.190178 -0.981750
vn 0.000000 1.000000 0.000001
vn 0.000001 -0.190178 -0.981750
vn -0.375699 -0.190178 -0.907019
vn 0.000000 1.000000 0.000001
vn -0.375699 -0.190178 -0.907019
vn -0.694202 -0.190178 -0.694202
vn 0.000000 1.000000 0.000001
vn -0.694202 -0.190178 -0.694202
vn -0.907018 -0.190178 -0.375700
vn 0.000000 1.000000 0.000001
vn -0.907018 -0.190178 -0.375700
vn -0.981750 -0.190178 0.000000
vn 0.000000 1.000000 0.000001
vn -0.981750 -0.190178 0.000000
vn -0.907019 -0.190178 0.375699
vn 0.000000 1.000000 0.000001
vn -0.907019 -0.190178 0.375699
vn -0.694202 -0.190178 0.694202
vn 0.000000 1.000000 0.000001
vn -0.694202 -0.190178 0.694202
vn -0.375700 -0.190178 0.907018
vn 0.000000 1.000000 0.000001
vn -0.375700 -0.190178 0.907018
vn 0.000000 -0.190178 0.981750
vn 0.000000 1.000000 0.000001
vn 0.000000 -0.190178 0.981750
vn 0.375699 -0.190178 0.907018
vn 0.000000 1.000000 0.000001
vn 0.375699 -0.190178 0.907018
vn 0.694202 -0.190178 0.694202
vn 0.000000 1.000000 0.000001
vn 0.694202 -0.190178 0.694202
vn 0.907018 -0.190178 0.375699
vn 0.000000 1.000000 0.000001
vn 0.907018 -0.190178 0.375699
vn 0.981750 -0.190178 0.000000
vn 0.000000 1.000000 0.000001
vn 0.981750 -0.190178 0.000000
vn 0.907018 -0.190178 -0.375699
vn 0.000000 1.000000 0.000001
s off
g roof8:pCone1
f 1/17/1 16/18/2 15/19/3 14/20/4 13/21/5 12/22/6 11/23/7 10/24/8 9/25/9 8/26/10 7/27/11 6/28/12 5/29/13 4/30/14 3/31/15 2/32/16
f 1/12/17 2/14/18 17/11/19
f 2/14/20 3/16/21 17/11/22
f 3/33/23 4/34/24 17/35/25
f 4/34/26 5/36/27 17/35/28
f 5/7/29 6/5/30 17/3/31
f 6/5/32 7/1/33 17/3/34
f 7/1/35 8/2/36 17/3/37
f 8/2/38 9/4/39 17/3/40
f 9/4/41 10/6/42 17/3/43
f 10/6/44 11/8/45 17/3/46
f 11/37/47 12/38/48 17/39/49
f 12/38/50 13/40/51 17/39/52
f 13/15/53 14/13/54 17/11/55
f 14/13/56 15/9/57 17/11/58
f 15/9/59 16/10/60 17/11/61
f 16/10/62 1/12/63 17/11/64
