# This file uses centimeters as units for non-parametric coordinates.

g default
v -1.000000 0.000000 1.000000
v 1.000000 0.000000 1.000000
v -1.000000 1.000000 1.000000
v 1.000000 1.000000 1.000000
v -1.000000 1.000000 -1.000000
v 1.000000 1.000000 -1.000000
v -1.000000 0.000000 -1.000000
v 1.000000 0.000000 -1.000000
vt 0.055052 0.229062
vt 0.055052 0.111425
vt 0.196140 0.111425
vt 0.196140 0.229062
vt 0.023246 0.061261
vt 0.235375 0.061261
vt 0.235375 0.273391
vt 0.023246 0.273391
vt 0.026989 0.274725
vt 0.026989 0.030756
vt 0.250859 0.030756
vt 0.250859 0.274725
vt 0.026828 0.070118
vt 0.226222 0.070118
vt 0.226222 0.269512
vt 0.026828 0.269512
vt 0.131757 0.256232
vt 0.131757 0.071730
vt 0.224009 0.071730
vt 0.224009 0.256232
vt 0.036978 0.256232
vt 0.036978 0.071730
vt 0.129229 0.071730
vt 0.129229 0.256232
vn 0.000000 -0.000000 1.000000
vn 0.000000 -0.000000 1.000000
vn 0.000000 -0.000000 1.000000
vn 0.000000 -0.000000 1.000000
vn 0.000000 1.000000 0.000000
vn 0.000000 1.000000 0.000000
vn 0.000000 1.000000 0.000000
vn 0.000000 1.000000 0.000000
vn 0.000000 0.000000 -1.000000
vn 0.000000 0.000000 -1.000000
vn 0.000000 0.000000 -1.000000
vn 0.000000 0.000000 -1.000000
vn 0.000000 -1.000000 0.000000
vn 0.000000 -1.000000 0.000000
vn 0.000000 -1.000000 0.000000
vn 0.000000 -1.000000 0.000000
vn 1.000000 -0.000000 0.000000
vn 1.000000 -0.000000 0.000000
vn 1.000000 -0.000000 0.000000
vn 1.000000 -0.000000 0.000000
vn -1.000000 0.000000 0.000000
vn -1.000000 0.000000 0.000000
vn -1.000000 0.000000 0.000000
vn -1.000000 0.000000 0.000000
s off
g window1:pCube1
f 1/1/1 2/2/2 4/3/3 3/4/4
f 3/5/5 4/6/6 6/7/7 5/8/8
f 5/9/9 6/10/10 8/11/11 7/12/12
f 7/13/13 8/14/14 2/15/15 1/16/16
f 2/17/17 8/18/18 6/19/19 4/20/20
f 7/21/21 1/22/22 3/23/23 5/24/24
